<?xml version="1.0" encoding="UTF-8"?>
<svg id="Layer_1" data-name="Layer 1" xmlns="http://www.w3.org/2000/svg" viewBox="0 0 277.32 61.84">
  <defs>
    <style>
      .cls-1 {
        fill: #3A4D39;
        stroke-width: 0px;
      }
    </style>
  </defs>
  <g>
    <path class="cls-1" d="M77,55.93v-9.99h4.21c.43,0,.83.09,1.2.27.37.18.68.42.94.72s.47.63.61,1.01c.14.38.22.75.22,1.14s-.05.72-.16,1.05c-.11.33-.26.63-.46.9-.2.27-.43.49-.7.67-.27.18-.58.31-.91.37l2.46,3.85h-1.11l-2.36-3.68h-2.95v3.68h-.97ZM77.97,51.38h3.28c.29,0,.56-.06.79-.19.24-.13.44-.3.61-.51.17-.22.3-.46.39-.73.09-.27.14-.56.14-.86s-.05-.59-.16-.87-.25-.52-.44-.72c-.18-.21-.4-.37-.65-.49-.25-.12-.51-.18-.78-.18h-3.19v4.56Z"/>
    <path class="cls-1" d="M97.21,55.06v.87h-6.71v-9.99h6.58v.87h-5.61v3.6h4.89v.83h-4.89v3.81h5.74Z"/>
    <path class="cls-1" d="M109.04,47.82c-.28-.32-.66-.58-1.13-.77-.47-.2-1.01-.3-1.6-.3-.89,0-1.54.17-1.94.5-.4.33-.6.79-.6,1.36,0,.3.05.55.16.74.11.19.28.36.51.5.23.14.52.26.87.37s.77.21,1.24.31c.53.11,1.01.24,1.43.37.42.14.78.31,1.08.52.3.21.53.47.69.77.16.31.24.68.24,1.13s-.09.86-.27,1.2c-.18.34-.43.62-.75.84-.32.23-.7.39-1.14.5-.44.11-.92.16-1.43.16-1.57,0-2.9-.48-4.01-1.45l.48-.8c.37.38.86.71,1.48.98.62.27,1.31.4,2.07.4.8,0,1.42-.14,1.87-.43.45-.29.68-.72.68-1.3,0-.31-.06-.57-.19-.78s-.32-.39-.57-.55c-.25-.15-.57-.29-.95-.4-.38-.11-.82-.22-1.32-.34-.53-.12-.98-.25-1.38-.38s-.72-.3-.99-.49c-.27-.2-.47-.43-.6-.71-.14-.28-.2-.62-.2-1.02,0-.46.09-.87.26-1.23.17-.36.42-.66.73-.9.31-.24.69-.42,1.13-.55.44-.13.92-.19,1.44-.19.66,0,1.24.1,1.76.3.52.2.99.49,1.41.85l-.46.79Z"/>
    <path class="cls-1" d="M122.99,46.82h-3.56v9.11h-.98v-9.11h-3.56v-.87h8.1v.87Z"/>
    <path class="cls-1" d="M132.33,56c-.69,0-1.33-.14-1.91-.43-.58-.29-1.07-.67-1.48-1.14-.41-.47-.73-1.01-.96-1.62-.22-.61-.34-1.23-.34-1.87s.12-1.3.36-1.91c.24-.61.57-1.15.99-1.62.42-.47.92-.84,1.49-1.12s1.19-.41,1.86-.41,1.33.15,1.91.44c.58.29,1.07.68,1.48,1.16s.72,1.02.95,1.62.34,1.22.34,1.85c0,.67-.12,1.3-.36,1.91-.24.61-.57,1.15-.98,1.61-.42.46-.91.83-1.48,1.11s-1.19.41-1.86.41ZM128.63,50.94c0,.54.09,1.07.27,1.57.18.5.43.95.76,1.34.33.39.72.7,1.17.93.45.23.95.34,1.51.34s1.07-.12,1.53-.37c.46-.24.85-.56,1.17-.96.32-.39.56-.84.74-1.34.17-.5.26-1,.26-1.52,0-.54-.09-1.07-.27-1.57-.18-.5-.44-.94-.77-1.33-.33-.38-.72-.69-1.17-.92-.45-.23-.95-.34-1.49-.34s-1.07.12-1.53.36c-.46.24-.85.56-1.17.95-.32.39-.57.84-.74,1.34-.17.5-.26,1-.26,1.52Z"/>
    <path class="cls-1" d="M143.13,55.93v-9.99h4.21c.43,0,.83.09,1.19.27.37.18.68.42.94.72.26.3.47.63.61,1.01.15.38.22.75.22,1.14s-.05.72-.16,1.05c-.11.33-.26.63-.46.9-.2.27-.43.49-.7.67-.27.18-.58.31-.91.37l2.46,3.85h-1.11l-2.36-3.68h-2.95v3.68h-.97ZM144.1,51.38h3.28c.29,0,.56-.06.79-.19.24-.13.44-.3.61-.51.17-.22.3-.46.39-.73.09-.27.14-.56.14-.86s-.05-.59-.16-.87c-.11-.28-.25-.52-.44-.72-.18-.21-.4-.37-.65-.49-.25-.12-.51-.18-.78-.18h-3.19v4.56Z"/>
    <path class="cls-1" d="M155.47,55.93l4.18-9.99h.8l4.18,9.99h-1.05l-1.29-3.12h-4.49l-1.28,3.12h-1.04ZM160.05,47.1l-2.05,4.94h4.05l-2-4.94Z"/>
    <path class="cls-1" d="M171.26,47.78v8.16h-.97v-9.99h.76l6.61,8.31v-8.3h.97v9.97h-.84l-6.53-8.16Z"/>
  </g>
  <g>
    <path class="cls-1" d="M77,34.28V7.95h5.13v12.52l11.07-12.56h5.65l-10.1,11.7,10.73,14.67h-5.76l-8.21-11.4-3.38,3.53v7.87h-5.13Z"/>
    <path class="cls-1" d="M122.84,34.47c-1.93,0-3.68-.38-5.26-1.13-1.57-.76-2.92-1.76-4.05-3.01-1.13-1.25-2-2.68-2.62-4.29-.62-1.61-.93-3.26-.93-4.94s.33-3.44.98-5.05c.66-1.61,1.56-3.03,2.71-4.27,1.15-1.24,2.52-2.22,4.1-2.95,1.58-.73,3.31-1.1,5.16-1.1s3.65.39,5.22,1.17c1.57.78,2.92,1.8,4.03,3.06,1.11,1.26,1.98,2.7,2.6,4.31.62,1.61.93,3.24.93,4.9,0,1.76-.32,3.44-.97,5.03-.64,1.6-1.54,3.01-2.67,4.23-1.14,1.23-2.5,2.2-4.09,2.94-1.59.73-3.31,1.1-5.16,1.1ZM115.19,21.1c0,1.14.17,2.24.52,3.31.35,1.07.85,2.01,1.5,2.82.66.82,1.46,1.47,2.41,1.97.95.5,2.04.74,3.25.74s2.33-.25,3.29-.76c.95-.51,1.76-1.18,2.41-2.02.66-.84,1.15-1.79,1.49-2.84.33-1.05.5-2.12.5-3.21s-.18-2.24-.54-3.31c-.36-1.06-.87-2.01-1.52-2.82-.66-.82-1.46-1.47-2.41-1.95-.95-.48-2.02-.72-3.21-.72s-2.34.25-3.31.76-1.77,1.18-2.41,2.01c-.64.83-1.13,1.77-1.47,2.82-.33,1.05-.5,2.12-.5,3.21Z"/>
    <path class="cls-1" d="M166.52,14.82c-.17-.17-.49-.41-.95-.71-.46-.3-1.02-.59-1.67-.87-.66-.28-1.37-.53-2.14-.72-.77-.2-1.55-.3-2.34-.3-1.41,0-2.46.26-3.16.78-.69.52-1.04,1.25-1.04,2.19,0,.55.13,1,.39,1.36.26.36.64.68,1.13.95.49.27,1.12.52,1.88.74.76.22,1.63.46,2.62.71,1.29.35,2.46.72,3.51,1.11,1.05.4,1.94.89,2.67,1.49.73.59,1.29,1.31,1.69,2.14.4.83.59,1.85.59,3.06,0,1.41-.27,2.62-.8,3.62-.53,1-1.25,1.81-2.15,2.43-.9.62-1.94,1.07-3.12,1.36-1.18.28-2.41.43-3.7.43-1.98,0-3.94-.3-5.87-.89s-3.67-1.44-5.2-2.53l2.27-4.42c.22.22.63.51,1.21.87.58.36,1.27.72,2.06,1.08.79.36,1.67.66,2.64.91.97.25,1.96.37,2.97.37,2.82,0,4.23-.9,4.23-2.71,0-.57-.16-1.05-.48-1.45-.32-.4-.78-.74-1.37-1.04s-1.31-.57-2.15-.82c-.84-.25-1.78-.52-2.82-.82-1.26-.35-2.36-.72-3.29-1.13s-1.7-.89-2.32-1.45c-.62-.56-1.08-1.2-1.39-1.93-.31-.73-.46-1.6-.46-2.62,0-1.34.25-2.53.74-3.57.49-1.04,1.18-1.91,2.06-2.6.88-.69,1.9-1.22,3.06-1.58,1.16-.36,2.41-.54,3.75-.54,1.86,0,3.57.29,5.13.87,1.56.58,2.92,1.27,4.09,2.06l-2.27,4.16ZM156.83,0l3.16,2.34,3.16-2.34,2.56,1.19-3.94,3.75h-3.6l-3.94-3.75,2.6-1.19Z"/>
    <path class="cls-1" d="M195.86,29.94c1.21,0,2.23-.25,3.06-.74.83-.49,1.5-1.14,2.01-1.93.51-.79.87-1.7,1.08-2.73.21-1.03.32-2.09.32-3.18V7.91h5.09v13.45c0,1.81-.22,3.5-.65,5.09-.43,1.59-1.11,2.97-2.04,4.16-.93,1.19-2.12,2.13-3.58,2.82-1.46.69-3.21,1.04-5.24,1.04s-3.89-.37-5.37-1.1c-1.47-.73-2.67-1.7-3.58-2.9-.92-1.2-1.58-2.59-1.99-4.18-.41-1.58-.61-3.23-.61-4.94V7.91h5.13v13.45c0,1.11.11,2.19.32,3.21.21,1.03.57,1.94,1.08,2.73.51.79,1.17,1.43,1.99,1.91.82.48,1.82.73,3.01.73Z"/>
    <path class="cls-1" d="M243.45,12.41h-8.43v21.88h-5.09V12.41h-8.43v-4.49h21.95v4.49Z"/>
    <path class="cls-1" d="M262.76,7.91h4.53l10.03,26.37h-5.27l-2.45-6.57h-9.21l-2.41,6.57h-5.27l10.07-26.37ZM268.67,24.11l-3.64-10.36-3.79,10.36h7.43Z"/>
  </g>
  <g>
    <path class="cls-1" d="M45.16,26.02v-7.38l-14.69,12.18-14.69-12.18v7.38l8.95,7.42h-9.21v4.66c0,1,.44,1.94,1.21,2.58l9.82,8.14c2.28,1.89,5.58,1.89,7.86,0l9.82-8.14c.77-.64,1.21-1.58,1.21-2.58v-4.66h-9.21l8.95-7.42Z"/>
    <circle class="cls-1" cx="30.48" cy="17.59" r="5.23"/>
    <path class="cls-1" d="M30.48.88C13.67.88,0,14.56,0,31.36s13.67,30.48,30.48,30.48,30.48-13.67,30.48-30.48S47.28.88,30.48.88ZM30.48,57.75c-14.55,0-26.39-11.84-26.39-26.39S15.93,4.97,30.48,4.97s26.39,11.84,26.39,26.39-11.84,26.39-26.39,26.39Z"/>
  </g>
</svg>